<?xml version="1.0" encoding="UTF-8" standalone="no"?>
<svg width="615.0" height="1180.0" xmlns="http://www.w3.org/2000/svg">
<defs>
<style type="text/css">
.node rect, .node ellipse, .node circle, .node diamond { fill: #f5f5f5; stroke: #333; stroke-width: 1px; }
.edgePath path { stroke: #333; stroke-width: 1.5px; fill: none; }
.edgePath path.dashed { stroke-dasharray: 5,5; }
.edgeLabel { fill: #333; font-family: sans-serif; font-size: 12px; }
.cluster { fill: #f0f0f0; stroke: #ddd; stroke-width: 1px; }
.nodeLabel { font-family: sans-serif; font-size: 14px; }
</style>
<marker id="arrowhead" markerWidth="10" markerHeight="7" refX="9" refY="3.5" orient="auto">
  <polygon points="0 0, 10 3.5, 0 7" fill="#333" />
</marker>
<marker id="arrowhead-blue" markerWidth="10" markerHeight="7" refX="9" refY="3.5" orient="auto">
  <polygon points="0 0, 10 3.5, 0 7" fill="#6A98F0" />
</marker>
<marker id="arrowhead-red" markerWidth="10" markerHeight="7" refX="9" refY="3.5" orient="auto">
  <polygon points="0 0, 10 3.5, 0 7" fill="#FF7676" />
</marker>
<marker id="arrowhead-green" markerWidth="10" markerHeight="7" refX="9" refY="3.5" orient="auto">
  <polygon points="0 0, 10 3.5, 0 7" fill="#75B798" />
</marker>
</defs>
<g class="edgePath">
<path d="M365.0,117.94117647058823 L315.0,165.0 L315.0,210.0" style="stroke-width: 2px; stroke: #666;" marker-end="url(#arrowhead)" />
<text x="315.0" y="165.0" text-anchor="middle" class="edgeLabel">link</text>
</g>
<g class="edgePath">
<path d="M400.0,120.0 L400.0,165.0 L400.0,240.0 L400.0,315.0 L400.0,360.0" style="stroke-width: 2px; stroke: #666;" marker-end="url(#arrowhead)" />
<text x="400.0" y="240.0" text-anchor="middle" class="edgeLabel">link</text>
</g>
<g class="edgePath">
<path d="M435.0,107.4 L525.0,165.0 L525.0,240.0 L525.0,315.0 L525.0,390.0 L525.0,465.0 L525.0,510.0" style="stroke-width: 2px; stroke: #666;" marker-end="url(#arrowhead)" />
<text x="525.0" y="315.0" text-anchor="middle" class="edgeLabel">link</text>
</g>
<g class="edgePath">
<path d="M285.0,268.125 L235.0,315.0 L235.0,365.0" marker-end="url(#arrowhead)" />
<text x="235.0" y="315.0" text-anchor="middle" class="edgeLabel" style="font-size: 10px;">1</text>
</g>
<g class="edgePath">
<path d="M384.0,420.0 L360.0,465.0 L260.0,525.0" marker-end="url(#arrowhead)" />
<text x="360.0" y="465.0" text-anchor="middle" class="edgeLabel" style="font-size: 10px;">2</text>
</g>
<g class="edgePath">
<path d="M525.0,570.0 L525.0,615.0 L260.0,678.9655172413793" marker-end="url(#arrowhead)" />
<text x="525.0" y="615.0" text-anchor="middle" class="edgeLabel" style="font-size: 10px;">3</text>
</g>
<g class="edgePath">
<path d="M315.0,270.0 L315.0,315.0 L315.0,390.0 L315.0,465.0 L315.0,540.0 L315.0,615.0 L155.0,685.0 L155.0,755.0 L155.0,800.0" marker-end="url(#arrowhead)" />
<text x="315.0" y="540.0" text-anchor="middle" class="edgeLabel" style="font-size: 10px;">4</text>
</g>
<g class="edgePath">
<path d="M400.0,420.0 L400.0,465.0 L400.0,540.0 L400.0,615.0 L400.0,685.0 L400.0,755.0 L400.0,825.0 L400.0,895.0 L180.0,957.8571428571429" marker-end="url(#arrowhead)" />
<text x="400.0" y="685.0" text-anchor="middle" class="edgeLabel" style="font-size: 10px;">5</text>
</g>
<g class="edgePath">
<path d="M541.0,570.0 L565.0,615.0 L565.0,685.0 L565.0,755.0 L565.0,825.0 L565.0,895.0 L565.0,965.0 L565.0,1035.0 L100.0,1101.4285714285713" marker-end="url(#arrowhead)" />
<text x="565.0" y="825.0" text-anchor="middle" class="edgeLabel" style="font-size: 10px;">6</text>
</g>
<g class="edgePath">
<path d="M235.0,415.0 L235.0,465.0 L235.0,515.0" style="stroke: #75B798; stroke-width: 1.5px;" marker-end="url(#arrowhead-green)" />
</g>
<g class="edgePath">
<path d="M235.0,565.0 L235.0,615.0 L235.0,660.0" style="stroke: #75B798; stroke-width: 1.5px;" marker-end="url(#arrowhead-green)" />
</g>
<g class="edgePath">
<path d="M235.0,710.0 L235.0,755.0 L180.0,803.125" style="stroke: #75B798; stroke-width: 1.5px;" marker-end="url(#arrowhead-green)" />
</g>
<g class="edgePath">
<path d="M155.0,850.0 L155.0,895.0 L155.0,940.0" style="stroke: #75B798; stroke-width: 1.5px;" marker-end="url(#arrowhead-green)" />
</g>
<g class="edgePath">
<path d="M155.0,990.0 L155.0,1035.0 L100.0,1083.125" style="stroke: #75B798; stroke-width: 1.5px;" marker-end="url(#arrowhead-green)" />
</g>
<g class="edgePath">
<path d="M75.0,1080.0 L75.0,1035.0 L75.0,965.0 L75.0,895.0 L75.0,825.0 L75.0,755.0 L75.0,685.0 L75.0,615.0 L75.0,540.0 L275.0,465.0 L248.33333333333334,415.0" style="stroke: #75B798; stroke-width: 1.5px;" marker-end="url(#arrowhead-green)" />
</g>
<g class="edgePath">
<path d="M260.0,375.0 L360.0,315.0 L333.0,270.0" style="stroke-dasharray: 5,3; stroke: #FF7676;" marker-end="url(#arrowhead-red)" />
<text x="360.0" y="315.0" text-anchor="middle" class="edgeLabel">back</text>
</g>
<g class="edgePath">
<path d="M180.0,818.859649122807 L440.0,755.0 L440.0,685.0 L440.0,615.0 L440.0,540.0 L440.0,465.0 L416.0,420.0" style="stroke-dasharray: 5,3; stroke: #76D7FF;" marker-end="url(#arrowhead)" />
<text x="440.0" y="615.0" text-anchor="middle" class="edgeLabel">back</text>
</g>
<g class="node">
<circle cx="400.0" cy="85.0" r="35.0" style="fill: #6A98F0; stroke: #335599; stroke-width: 2px;" />
<text x="400.0" y="85.0" text-anchor="middle" dominant-baseline="middle" class="nodeLabel" style="font-weight: bold; font-size: 16px; fill: white;">Hub</text>
</g>
<g class="node">
<circle cx="315.0" cy="240.0" r="30.0" style="fill: #FF7676; stroke: #555; stroke-width: 1.5px;" />
<text x="315.0" y="240.0" text-anchor="middle" dominant-baseline="middle" class="nodeLabel" style="font-weight: bold; fill: white;">M1</text>
</g>
<g class="node">
<circle cx="400.0" cy="390.0" r="30.0" style="fill: #76D7FF; stroke: #555; stroke-width: 1.5px;" />
<text x="400.0" y="390.0" text-anchor="middle" dominant-baseline="middle" class="nodeLabel" style="font-weight: bold; fill: white;">M2</text>
</g>
<g class="node">
<circle cx="525.0" cy="540.0" r="30.0" style="fill: #FFD876; stroke: #555; stroke-width: 1.5px;" />
<text x="525.0" y="540.0" text-anchor="middle" dominant-baseline="middle" class="nodeLabel" style="font-weight: bold; fill: white;">M3</text>
</g>
<g class="node">
<circle cx="235.0" cy="390.0" r="25.0" style="fill: #A5E8AD; stroke: #188D2F; stroke-width: 1px;" />
<text x="235.0" y="390.0" text-anchor="middle" dominant-baseline="middle" class="nodeLabel">A</text>
</g>
<g class="node">
<circle cx="235.0" cy="540.0" r="25.0" style="fill: #A5E8AD; stroke: #188D2F; stroke-width: 1px;" />
<text x="235.0" y="540.0" text-anchor="middle" dominant-baseline="middle" class="nodeLabel">B</text>
</g>
<g class="node">
<circle cx="235.0" cy="685.0" r="25.0" style="fill: #A5E8AD; stroke: #188D2F; stroke-width: 1px;" />
<text x="235.0" y="685.0" text-anchor="middle" dominant-baseline="middle" class="nodeLabel">C</text>
</g>
<g class="node">
<circle cx="155.0" cy="825.0" r="25.0" style="fill: #A5E8AD; stroke: #188D2F; stroke-width: 1px;" />
<text x="155.0" y="825.0" text-anchor="middle" dominant-baseline="middle" class="nodeLabel">D</text>
</g>
<g class="node">
<circle cx="155.0" cy="965.0" r="25.0" style="fill: #A5E8AD; stroke: #188D2F; stroke-width: 1px;" />
<text x="155.0" y="965.0" text-anchor="middle" dominant-baseline="middle" class="nodeLabel">E</text>
</g>
<g class="node">
<circle cx="75.0" cy="1105.0" r="25.0" style="fill: #A5E8AD; stroke: #188D2F; stroke-width: 1px;" />
<text x="75.0" y="1105.0" text-anchor="middle" dominant-baseline="middle" class="nodeLabel">F</text>
</g>
</svg>
