<?xml version="1.0" encoding="UTF-8" standalone="no"?>
<svg width="1200" height="900" xmlns="http://www.w3.org/2000/svg">
<defs>
<style type="text/css">
.node rect, .node ellipse, .node path { stroke-width: 2px; }
.edgePath path { fill: none; }
.edgeLabel { font-family: "Helvetica Neue", Helvetica, Arial, sans-serif; font-size: 12px; font-weight: 500; }
.nodeLabel { font-family: "Helvetica Neue", Helvetica, Arial, sans-serif; font-size: 14px; font-weight: 600; }
.container { opacity: 0.9; }
</style>
<marker id="arrowhead" markerWidth="10" markerHeight="7" refX="9" refY="3.5" orient="auto" markerUnits="strokeWidth">
  <polygon points="0 0, 10 3.5, 0 7" fill="#333" />
</marker>
<marker id="arrowhead-1976d2" markerWidth="10" markerHeight="7" refX="9" refY="3.5" orient="auto" markerUnits="strokeWidth">
  <polygon points="0 0, 10 3.5, 0 7" fill="#1976d2" />
</marker>
<marker id="arrowhead-388e3c" markerWidth="10" markerHeight="7" refX="9" refY="3.5" orient="auto" markerUnits="strokeWidth">
  <polygon points="0 0, 10 3.5, 0 7" fill="#388e3c" />
</marker>
<marker id="arrowhead-e65100" markerWidth="10" markerHeight="7" refX="9" refY="3.5" orient="auto" markerUnits="strokeWidth">
  <polygon points="0 0, 10 3.5, 0 7" fill="#e65100" />
</marker>
<marker id="arrowhead-0288d1" markerWidth="10" markerHeight="7" refX="9" refY="3.5" orient="auto" markerUnits="strokeWidth">
  <polygon points="0 0, 10 3.5, 0 7" fill="#0288d1" />
</marker>
<marker id="arrowhead-9c27b0" markerWidth="10" markerHeight="7" refX="9" refY="3.5" orient="auto" markerUnits="strokeWidth">
  <polygon points="0 0, 10 3.5, 0 7" fill="#9c27b0" />
</marker>
<marker id="arrowhead-d32f2f" markerWidth="10" markerHeight="7" refX="9" refY="3.5" orient="auto" markerUnits="strokeWidth">
  <polygon points="0 0, 10 3.5, 0 7" fill="#d32f2f" />
</marker>
<marker id="arrowhead-4caf50" markerWidth="10" markerHeight="7" refX="9" refY="3.5" orient="auto" markerUnits="strokeWidth">
  <polygon points="0 0, 10 3.5, 0 7" fill="#4caf50" />
</marker>
<marker id="arrowhead-8e24aa" markerWidth="10" markerHeight="7" refX="9" refY="3.5" orient="auto" markerUnits="strokeWidth">
  <polygon points="0 0, 10 3.5, 0 7" fill="#8e24aa" />
</marker>
<marker id="arrowhead-ff6f00" markerWidth="10" markerHeight="7" refX="9" refY="3.5" orient="auto" markerUnits="strokeWidth">
  <polygon points="0 0, 10 3.5, 0 7" fill="#ff6f00" />
</marker>
<marker id="arrowhead-f44336" markerWidth="10" markerHeight="7" refX="9" refY="3.5" orient="auto" markerUnits="strokeWidth">
  <polygon points="0 0, 10 3.5, 0 7" fill="#f44336" />
</marker>
<marker id="arrowhead-3f51b5" markerWidth="10" markerHeight="7" refX="9" refY="3.5" orient="auto" markerUnits="strokeWidth">
  <polygon points="0 0, 10 3.5, 0 7" fill="#3f51b5" />
</marker>
<marker id="arrowhead-1565c0" markerWidth="10" markerHeight="7" refX="9" refY="3.5" orient="auto" markerUnits="strokeWidth">
  <polygon points="0 0, 10 3.5, 0 7" fill="#1565c0" />
</marker>
<marker id="arrowhead-2e7d32" markerWidth="10" markerHeight="7" refX="9" refY="3.5" orient="auto" markerUnits="strokeWidth">
  <polygon points="0 0, 10 3.5, 0 7" fill="#2e7d32" />
</marker>
<marker id="arrowhead-673ab7" markerWidth="10" markerHeight="7" refX="9" refY="3.5" orient="auto" markerUnits="strokeWidth">
  <polygon points="0 0, 10 3.5, 0 7" fill="#673ab7" />
</marker>
<filter id="drop-shadow" height="130%">
  <feGaussianBlur in="SourceAlpha" stdDeviation="3" />
  <feOffset dx="2" dy="2" result="offsetblur" />
  <feComponentTransfer>
    <feFuncA type="linear" slope="0.2" />
  </feComponentTransfer>
  <feMerge>
    <feMergeNode />
    <feMergeNode in="SourceGraphic" />
  </feMerge>
</filter>
<filter id="glow" x="-30%" y="-30%" width="160%" height="160%">
  <feGaussianBlur stdDeviation="5" result="glow" />
  <feMerge>
    <feMergeNode in="glow" />
    <feMergeNode in="SourceGraphic" />
  </feMerge>
</filter>
</defs>
<rect width="1200" height="900" fill="#fafafa" />
<g class="grid" opacity="0.05">
<line x1="0" y1="0" x2="0" y2="900" stroke="#000" stroke-width="1" />
<line x1="50" y1="0" x2="50" y2="900" stroke="#000" stroke-width="1" />
<line x1="100" y1="0" x2="100" y2="900" stroke="#000" stroke-width="1" />
<line x1="150" y1="0" x2="150" y2="900" stroke="#000" stroke-width="1" />
<line x1="200" y1="0" x2="200" y2="900" stroke="#000" stroke-width="1" />
<line x1="250" y1="0" x2="250" y2="900" stroke="#000" stroke-width="1" />
<line x1="300" y1="0" x2="300" y2="900" stroke="#000" stroke-width="1" />
<line x1="350" y1="0" x2="350" y2="900" stroke="#000" stroke-width="1" />
<line x1="400" y1="0" x2="400" y2="900" stroke="#000" stroke-width="1" />
<line x1="450" y1="0" x2="450" y2="900" stroke="#000" stroke-width="1" />
<line x1="500" y1="0" x2="500" y2="900" stroke="#000" stroke-width="1" />
<line x1="550" y1="0" x2="550" y2="900" stroke="#000" stroke-width="1" />
<line x1="600" y1="0" x2="600" y2="900" stroke="#000" stroke-width="1" />
<line x1="650" y1="0" x2="650" y2="900" stroke="#000" stroke-width="1" />
<line x1="700" y1="0" x2="700" y2="900" stroke="#000" stroke-width="1" />
<line x1="750" y1="0" x2="750" y2="900" stroke="#000" stroke-width="1" />
<line x1="800" y1="0" x2="800" y2="900" stroke="#000" stroke-width="1" />
<line x1="850" y1="0" x2="850" y2="900" stroke="#000" stroke-width="1" />
<line x1="900" y1="0" x2="900" y2="900" stroke="#000" stroke-width="1" />
<line x1="950" y1="0" x2="950" y2="900" stroke="#000" stroke-width="1" />
<line x1="1000" y1="0" x2="1000" y2="900" stroke="#000" stroke-width="1" />
<line x1="1050" y1="0" x2="1050" y2="900" stroke="#000" stroke-width="1" />
<line x1="1100" y1="0" x2="1100" y2="900" stroke="#000" stroke-width="1" />
<line x1="1150" y1="0" x2="1150" y2="900" stroke="#000" stroke-width="1" />
<line x1="0" y1="0" x2="1200" y2="0" stroke="#000" stroke-width="1" />
<line x1="0" y1="50" x2="1200" y2="50" stroke="#000" stroke-width="1" />
<line x1="0" y1="100" x2="1200" y2="100" stroke="#000" stroke-width="1" />
<line x1="0" y1="150" x2="1200" y2="150" stroke="#000" stroke-width="1" />
<line x1="0" y1="200" x2="1200" y2="200" stroke="#000" stroke-width="1" />
<line x1="0" y1="250" x2="1200" y2="250" stroke="#000" stroke-width="1" />
<line x1="0" y1="300" x2="1200" y2="300" stroke="#000" stroke-width="1" />
<line x1="0" y1="350" x2="1200" y2="350" stroke="#000" stroke-width="1" />
<line x1="0" y1="400" x2="1200" y2="400" stroke="#000" stroke-width="1" />
<line x1="0" y1="450" x2="1200" y2="450" stroke="#000" stroke-width="1" />
<line x1="0" y1="500" x2="1200" y2="500" stroke="#000" stroke-width="1" />
<line x1="0" y1="550" x2="1200" y2="550" stroke="#000" stroke-width="1" />
<line x1="0" y1="600" x2="1200" y2="600" stroke="#000" stroke-width="1" />
<line x1="0" y1="650" x2="1200" y2="650" stroke="#000" stroke-width="1" />
<line x1="0" y1="700" x2="1200" y2="700" stroke="#000" stroke-width="1" />
<line x1="0" y1="750" x2="1200" y2="750" stroke="#000" stroke-width="1" />
<line x1="0" y1="800" x2="1200" y2="800" stroke="#000" stroke-width="1" />
<line x1="0" y1="850" x2="1200" y2="850" stroke="#000" stroke-width="1" />
</g>
<g class="container" filter="url(#drop-shadow)">
<rect x="150.0" y="110.0" width="900" height="140" rx="5" ry="5" fill="#e8eaf6" stroke="#3f51b5" stroke-width="2" />
<text x="600.0" y="125.0" text-anchor="middle" dominant-baseline="middle" class="nodeLabel">System</text>
</g>
<g class="container" filter="url(#drop-shadow)">
<rect x="200.0" y="510.0" width="800" height="140" rx="5" ry="5" fill="#f3e5f5" stroke="#9c27b0" stroke-width="2" />
<text x="600.0" y="525.0" text-anchor="middle" dominant-baseline="middle" class="nodeLabel">Results</text>
</g>
<g class="container" filter="url(#drop-shadow)">
<rect x="200.0" y="130.0" width="200" height="100" rx="5" ry="5" fill="#e3f2fd" stroke="#1976d2" stroke-width="2" />
<text x="300.0" y="180.0" text-anchor="middle" dominant-baseline="middle" class="nodeLabel">Input Module</text>
</g>
<g class="container" filter="url(#drop-shadow)">
<rect x="500.0" y="130.0" width="200" height="100" rx="5" ry="5" fill="#e8f5e9" stroke="#388e3c" stroke-width="2" />
<text x="600.0" y="180.0" text-anchor="middle" dominant-baseline="middle" class="nodeLabel">Process Module</text>
</g>
<g class="container" filter="url(#drop-shadow)">
<rect x="800.0" y="130.0" width="200" height="100" rx="5" ry="5" fill="#fff3e0" stroke="#e65100" stroke-width="2" />
<text x="900.0" y="180.0" text-anchor="middle" dominant-baseline="middle" class="nodeLabel">Output Module</text>
</g>
<g class="container" filter="url(#drop-shadow)">
<rect x="260.0" y="540.0" width="180" height="80" rx="5" ry="5" fill="#e1bee7" stroke="#8e24aa" stroke-width="2" />
<text x="350.0" y="580.0" text-anchor="middle" dominant-baseline="middle" class="nodeLabel">Data Storage</text>
</g>
<g class="container" filter="url(#drop-shadow)">
<rect x="510.0" y="540.0" width="180" height="80" rx="5" ry="5" fill="#e1bee7" stroke="#8e24aa" stroke-width="2" />
<text x="600.0" y="580.0" text-anchor="middle" dominant-baseline="middle" class="nodeLabel">Visualization</text>
</g>
<g class="container" filter="url(#drop-shadow)">
<rect x="760.0" y="540.0" width="180" height="80" rx="5" ry="5" fill="#e1bee7" stroke="#8e24aa" stroke-width="2" />
<text x="850.0" y="580.0" text-anchor="middle" dominant-baseline="middle" class="nodeLabel">Export</text>
</g>
<g class="edgePath">
<path d="M600,60 C600,108.0 600,132.0 600,180" stroke="#1976d2" stroke-width="2" marker-end="url(#arrowhead-1976d2)" />
<rect x="580.0" y="100.0" width="40" height="20" rx="10" ry="10" fill="white" stroke="#1976d2" stroke-width="1" opacity="0.9" />
<text x="600.0" y="110.0" text-anchor="middle" dominant-baseline="middle" fill="#1976d2" class="edgeLabel">init</text>
</g>
<g class="edgePath">
<path d="M600,180 C600,240.0 600,270.0 600,330" stroke="#3f51b5" stroke-width="2" marker-end="url(#arrowhead-3f51b5)" />
<rect x="571.0" y="235.0" width="58" height="20" rx="10" ry="10" fill="white" stroke="#3f51b5" stroke-width="1" opacity="0.9" />
<text x="600.0" y="245.0" text-anchor="middle" dominant-baseline="middle" fill="#3f51b5" class="edgeLabel">validate</text>
</g>
<g class="edgePath">
<path d="M600,330 C600,378.0 400,402.0 400,450" stroke="#ff6f00" stroke-width="2" marker-end="url(#arrowhead-ff6f00)" />
<rect x="480.0" y="370.0" width="40" height="20" rx="10" ry="10" fill="white" stroke="#ff6f00" stroke-width="1" opacity="0.9" />
<text x="500.0" y="380.0" text-anchor="middle" dominant-baseline="middle" fill="#ff6f00" class="edgeLabel">yes</text>
</g>
<g class="edgePath">
<path d="M600,330 C600,378.0 800,402.0 800,450" stroke="#ff6f00" stroke-width="2" marker-end="url(#arrowhead-ff6f00)" />
<rect x="680.0" y="370.0" width="40" height="20" rx="10" ry="10" fill="white" stroke="#ff6f00" stroke-width="1" opacity="0.9" />
<text x="700.0" y="380.0" text-anchor="middle" dominant-baseline="middle" fill="#ff6f00" class="edgeLabel">no</text>
</g>
<g class="edgePath">
<path d="M400,450 C400,502.0 600,528.0 600,580" stroke="#4caf50" stroke-width="2" marker-end="url(#arrowhead-4caf50)" />
<rect x="474.0" y="495.0" width="52" height="20" rx="10" ry="10" fill="white" stroke="#4caf50" stroke-width="1" opacity="0.9" />
<text x="500.0" y="505.0" text-anchor="middle" dominant-baseline="middle" fill="#4caf50" class="edgeLabel">process</text>
</g>
<g class="edgePath">
<path d="M800,450 C800,502.0 600,528.0 600,580" stroke="#f44336" stroke-width="2" marker-end="url(#arrowhead-f44336)" />
<rect x="659.0" y="495.0" width="82" height="20" rx="10" ry="10" fill="white" stroke="#f44336" stroke-width="1" opacity="0.9" />
<text x="700.0" y="505.0" text-anchor="middle" dominant-baseline="middle" fill="#f44336" class="edgeLabel">handle error</text>
</g>
<g class="edgePath">
<path d="M600,580 C600,640.0 600,670.0 600,730" stroke="#9c27b0" stroke-width="2" marker-end="url(#arrowhead-9c27b0)" />
<rect x="571.0" y="635.0" width="58" height="20" rx="10" ry="10" fill="white" stroke="#9c27b0" stroke-width="1" opacity="0.9" />
<text x="600.0" y="645.0" text-anchor="middle" dominant-baseline="middle" fill="#9c27b0" class="edgeLabel">complete</text>
</g>
<g class="edgePath">
<path d="M300,180 L450.0,180 L450.0,180 L600,180" stroke="#1976d2" stroke-width="1.5" marker-end="url(#arrowhead-1976d2)" />
<rect x="430.0" y="160.0" width="40" height="20" rx="10" ry="10" fill="white" stroke="#1976d2" stroke-width="1" opacity="0.9" />
<text x="450.0" y="170.0" text-anchor="middle" dominant-baseline="middle" fill="#1976d2" class="edgeLabel">feed</text>
</g>
<g class="edgePath">
<path d="M600,180 L750.0,180 L750.0,180 L900,180" stroke="#388e3c" stroke-width="1.5" marker-end="url(#arrowhead-388e3c)" />
<rect x="727.0" y="160.0" width="46" height="20" rx="10" ry="10" fill="white" stroke="#388e3c" stroke-width="1" opacity="0.9" />
<text x="750.0" y="170.0" text-anchor="middle" dominant-baseline="middle" fill="#388e3c" class="edgeLabel">result</text>
</g>
<g class="edgePath">
<path d="M250,180 L300.0,180 L300.0,180 L350,180" stroke="#1565c0" stroke-width="1" marker-end="url(#arrowhead-1565c0)" />
</g>
<g class="edgePath">
<path d="M550,180 L600.0,180 L600.0,180 L650,180" stroke="#2e7d32" stroke-width="1" marker-end="url(#arrowhead-2e7d32)" />
</g>
<g class="edgePath">
<path d="M850,180 L900.0,180 L900.0,180 L950,180" stroke="#e65100" stroke-width="1" marker-end="url(#arrowhead-e65100)" />
</g>
<g class="edgePath">
<path d="M350,580 L475.0,580 L475.0,580 L600,580" stroke="#8e24aa" stroke-width="1.5" marker-end="url(#arrowhead-8e24aa)" />
<rect x="455.0" y="560.0" width="40" height="20" rx="10" ry="10" fill="white" stroke="#8e24aa" stroke-width="1" opacity="0.9" />
<text x="475.0" y="570.0" text-anchor="middle" dominant-baseline="middle" fill="#8e24aa" class="edgeLabel">load</text>
</g>
<g class="edgePath">
<path d="M600,580 L725.0,580 L725.0,580 L850,580" stroke="#8e24aa" stroke-width="1.5" marker-end="url(#arrowhead-8e24aa)" />
<rect x="702.0" y="560.0" width="46" height="20" rx="10" ry="10" fill="white" stroke="#8e24aa" stroke-width="1" opacity="0.9" />
<text x="725.0" y="570.0" text-anchor="middle" dominant-baseline="middle" fill="#8e24aa" class="edgeLabel">select</text>
</g>
<g class="edgePath">
<path d="M300,580 L350.0,580 L350.0,580 L400,580" stroke="#673ab7" stroke-width="1" marker-end="url(#arrowhead-673ab7)" />
<rect x="330.0" y="560.0" width="40" height="20" rx="10" ry="10" fill="white" stroke="#673ab7" stroke-width="1" opacity="0.9" />
<text x="350.0" y="570.0" text-anchor="middle" dominant-baseline="middle" fill="#673ab7" class="edgeLabel">sync</text>
</g>
<g class="edgePath">
<path d="M550,580 L600.0,580 L600.0,580 L650,580" stroke="#673ab7" stroke-width="1" marker-end="url(#arrowhead-673ab7)" />
</g>
<g class="edgePath">
<path d="M800,580 L850.0,580 L850.0,580 L900,580" stroke="#673ab7" stroke-width="1" marker-end="url(#arrowhead-673ab7)" />
</g>
<g class="node" filter="url(#glow)">
<ellipse cx="600" cy="60" rx="50.0" ry="25.0" fill="#e3f2fd" stroke="#1976d2" stroke-width="2" />
<text x="600" y="60" text-anchor="middle" dominant-baseline="middle" class="nodeLabel">Start</text>
</g>
<g class="node" filter="url(#drop-shadow)">
<rect x="210.0" y="160.0" width="80" height="40" rx="5" ry="5" fill="#bbdefb" stroke="#1565c0" stroke-width="2" />
<text x="250" y="180" text-anchor="middle" dominant-baseline="middle" class="nodeLabel">Parser</text>
</g>
<g class="node" filter="url(#drop-shadow)">
<rect x="310.0" y="160.0" width="80" height="40" rx="5" ry="5" fill="#bbdefb" stroke="#1565c0" stroke-width="2" />
<text x="350" y="180" text-anchor="middle" dominant-baseline="middle" class="nodeLabel">Validator</text>
</g>
<g class="node" filter="url(#drop-shadow)">
<rect x="510.0" y="160.0" width="80" height="40" rx="5" ry="5" fill="#c8e6c9" stroke="#2e7d32" stroke-width="2" />
<text x="550" y="180" text-anchor="middle" dominant-baseline="middle" class="nodeLabel">Analytics</text>
</g>
<g class="node" filter="url(#drop-shadow)">
<rect x="610.0" y="160.0" width="80" height="40" rx="5" ry="5" fill="#c8e6c9" stroke="#2e7d32" stroke-width="2" />
<text x="650" y="180" text-anchor="middle" dominant-baseline="middle" class="nodeLabel">Transformer</text>
</g>
<g class="node" filter="url(#drop-shadow)">
<rect x="810.0" y="160.0" width="80" height="40" rx="5" ry="5" fill="#ffe0b2" stroke="#e65100" stroke-width="2" />
<text x="850" y="180" text-anchor="middle" dominant-baseline="middle" class="nodeLabel">Formatter</text>
</g>
<g class="node" filter="url(#drop-shadow)">
<rect x="910.0" y="160.0" width="80" height="40" rx="5" ry="5" fill="#ffe0b2" stroke="#e65100" stroke-width="2" />
<text x="950" y="180" text-anchor="middle" dominant-baseline="middle" class="nodeLabel">Renderer</text>
</g>
<g class="node" filter="url(#drop-shadow)">
<path d="M600,290.0 L680.0,330 L600,370.0 L520.0,330 Z" fill="#fff3e0" stroke="#ff6f00" stroke-width="2" />
<text x="600" y="330" text-anchor="middle" dominant-baseline="middle" class="nodeLabel">Data Valid?</text>
</g>
<g class="node" filter="url(#drop-shadow)">
<rect x="310.0" y="410.0" width="180" height="80" rx="5" ry="5" fill="#e8f5e9" stroke="#4caf50" stroke-width="2" />
<text x="400" y="450" text-anchor="middle" dominant-baseline="middle" class="nodeLabel">Success Path</text>
</g>
<g class="node" filter="url(#drop-shadow)">
<rect x="710.0" y="410.0" width="180" height="80" rx="5" ry="5" fill="#ffebee" stroke="#f44336" stroke-width="2" />
<text x="800" y="450" text-anchor="middle" dominant-baseline="middle" class="nodeLabel">Error Path</text>
</g>
<g class="node" filter="url(#drop-shadow)">
<rect x="265.0" y="562.5" width="70" height="35" rx="5" ry="5" fill="#d1c4e9" stroke="#673ab7" stroke-width="2" />
<text x="300" y="580" text-anchor="middle" dominant-baseline="middle" class="nodeLabel">Local</text>
</g>
<g class="node" filter="url(#drop-shadow)">
<rect x="365.0" y="562.5" width="70" height="35" rx="5" ry="5" fill="#d1c4e9" stroke="#673ab7" stroke-width="2" />
<text x="400" y="580" text-anchor="middle" dominant-baseline="middle" class="nodeLabel">Cloud</text>
</g>
<g class="node" filter="url(#drop-shadow)">
<rect x="515.0" y="562.5" width="70" height="35" rx="5" ry="5" fill="#d1c4e9" stroke="#673ab7" stroke-width="2" />
<text x="550" y="580" text-anchor="middle" dominant-baseline="middle" class="nodeLabel">Charts</text>
</g>
<g class="node" filter="url(#drop-shadow)">
<rect x="615.0" y="562.5" width="70" height="35" rx="5" ry="5" fill="#d1c4e9" stroke="#673ab7" stroke-width="2" />
<text x="650" y="580" text-anchor="middle" dominant-baseline="middle" class="nodeLabel">Dashboard</text>
</g>
<g class="node" filter="url(#drop-shadow)">
<rect x="765.0" y="562.5" width="70" height="35" rx="5" ry="5" fill="#d1c4e9" stroke="#673ab7" stroke-width="2" />
<text x="800" y="580" text-anchor="middle" dominant-baseline="middle" class="nodeLabel">PDF</text>
</g>
<g class="node" filter="url(#drop-shadow)">
<rect x="865.0" y="562.5" width="70" height="35" rx="5" ry="5" fill="#d1c4e9" stroke="#673ab7" stroke-width="2" />
<text x="900" y="580" text-anchor="middle" dominant-baseline="middle" class="nodeLabel">Excel</text>
</g>
<g class="node" filter="url(#glow)">
<ellipse cx="600" cy="730" rx="50.0" ry="25.0" fill="#ffebee" stroke="#d32f2f" stroke-width="2" />
<text x="600" y="730" text-anchor="middle" dominant-baseline="middle" class="nodeLabel">End</text>
</g>
</svg>
