<?xml version="1.0" encoding="UTF-8" standalone="no"?>
<svg width="390.0" height="560.0" xmlns="http://www.w3.org/2000/svg">
<defs>
<style type="text/css">
.node rect, .node ellipse, .node circle, .node diamond { fill: #f5f5f5; stroke: #333; stroke-width: 1px; }
.edgePath path { stroke: #333; stroke-width: 1.5px; fill: none; }
.edgePath path.dashed { stroke-dasharray: 5,5; }
.edgeLabel { fill: #333; font-family: sans-serif; font-size: 12px; }
.cluster { fill: #f0f0f0; stroke: #ddd; stroke-width: 1px; }
.nodeLabel { font-family: sans-serif; font-size: 14px; }
</style>
<marker id="arrowhead" markerWidth="10" markerHeight="7" refX="9" refY="3.5" orient="auto">
  <polygon points="0 0, 10 3.5, 0 7" fill="#333" />
</marker>
<marker id="arrowhead-blue" markerWidth="10" markerHeight="7" refX="9" refY="3.5" orient="auto">
  <polygon points="0 0, 10 3.5, 0 7" fill="#6A98F0" />
</marker>
<marker id="arrowhead-red" markerWidth="10" markerHeight="7" refX="9" refY="3.5" orient="auto">
  <polygon points="0 0, 10 3.5, 0 7" fill="#FF7676" />
</marker>
<marker id="arrowhead-green" markerWidth="10" markerHeight="7" refX="9" refY="3.5" orient="auto">
  <polygon points="0 0, 10 3.5, 0 7" fill="#75B798" />
</marker>
</defs>
<g class="cluster" style="">
<rect x="40.0" y="130.0" width="310.0" height="90.0" rx="5" ry="5" />
<text x="195.0" y="145.0" text-anchor="middle" class="nodeLabel">Subprocess</text>
</g>
<g class="edgePath">
<path d="M166.11111111111111,80.0 L130.0,105.0 L130.0,130.0 L130.0,155.0" marker-end="url(#arrowhead)" />
<text x="130.0" y="130.0" text-anchor="middle" class="edgeLabel">start</text>
</g>
<g class="edgePath">
<path d="M223.88888888888889,80.0 L260.0,105.0 L260.0,130.0 L260.0,155.0" marker-end="url(#arrowhead)" />
<text x="260.0" y="130.0" text-anchor="middle" class="edgeLabel">alternate</text>
</g>
<g class="edgePath">
<path d="M130.0,195.0 L130.0,220.0 L130.0,245.0 L160.0,272.6923076923077" marker-end="url(#arrowhead)" />
<text x="130.0" y="245.0" text-anchor="middle" class="edgeLabel">process</text>
</g>
<g class="edgePath">
<path d="M260.0,195.0 L260.0,220.0 L260.0,245.0 L230.0,272.6923076923077" marker-end="url(#arrowhead)" />
<text x="260.0" y="245.0" text-anchor="middle" class="edgeLabel">process</text>
</g>
<g class="edgePath">
<path d="M160.0,337.3076923076923 L130.0,365.0 L130.0,390.0" marker-end="url(#arrowhead)" />
<text x="130.0" y="365.0" text-anchor="middle" class="edgeLabel">yes</text>
</g>
<g class="edgePath">
<path d="M230.0,337.3076923076923 L260.0,365.0 L260.0,390.0" marker-end="url(#arrowhead)" />
<text x="260.0" y="365.0" text-anchor="middle" class="edgeLabel">no</text>
</g>
<g class="edgePath">
<path d="M130.0,430.0 L130.0,455.0 L166.11111111111111,480.0" marker-end="url(#arrowhead)" />
<text x="130.0" y="455.0" text-anchor="middle" class="edgeLabel">complete</text>
</g>
<g class="edgePath">
<path d="M260.0,430.0 L260.0,455.0 L223.88888888888889,480.0" marker-end="url(#arrowhead)" />
<text x="260.0" y="455.0" text-anchor="middle" class="edgeLabel">complete</text>
</g>
<g class="node">
<ellipse cx="195.0" cy="60.0" rx="30.0" ry="20.0"  />
<text x="195.0" y="60.0" text-anchor="middle" dominant-baseline="middle" class="nodeLabel">Start</text>
</g>
<g class="node">
<rect x="90.0" y="155.0" width="80.0" height="40.0" rx="3" ry="3"  />
<text x="130.0" y="175.0" text-anchor="middle" dominant-baseline="middle" class="nodeLabel">Process 1</text>
</g>
<g class="node">
<rect x="220.0" y="155.0" width="80.0" height="40.0" rx="3" ry="3"  />
<text x="260.0" y="175.0" text-anchor="middle" dominant-baseline="middle" class="nodeLabel">Process 2</text>
</g>
<g class="node">
<path d="M195.0,270.0 L230.0,305.0 L195.0,340.0 L160.0,305.0 Z"  />
<text x="195.0" y="305.0" text-anchor="middle" dominant-baseline="middle" class="nodeLabel">Decision</text>
</g>
<g class="node">
<rect x="90.0" y="390.0" width="80.0" height="40.0" rx="3" ry="3"  />
<text x="130.0" y="410.0" text-anchor="middle" dominant-baseline="middle" class="nodeLabel">Process 3</text>
</g>
<g class="node">
<rect x="220.0" y="390.0" width="80.0" height="40.0" rx="3" ry="3"  />
<text x="260.0" y="410.0" text-anchor="middle" dominant-baseline="middle" class="nodeLabel">Process 4</text>
</g>
<g class="node">
<ellipse cx="195.0" cy="500.0" rx="30.0" ry="20.0"  />
<text x="195.0" y="500.0" text-anchor="middle" dominant-baseline="middle" class="nodeLabel">End</text>
</g>
</svg>
