<?xml version="1.0" encoding="UTF-8" standalone="no"?>
<svg width="800.0" height="600.0" xmlns="http://www.w3.org/2000/svg">
<style type="text/css">
.node rect, .node ellipse { stroke-width: 2px; }
.edge path { fill: none; }
.nodeLabel, .edgeLabel { font-family: sans-serif; font-size: 14px; }
</style>
<marker id="arrowhead" markerWidth="10" markerHeight="7" refX="9" refY="3.5" orient="auto">
  <polygon points="0 0, 10 3.5, 0 7" fill="#333" />
</marker>
<rect width="800.0" height="600.0" fill="#f8f8f8" />
<g class="grid" opacity="0.1">
<line x1="0" y1="0" x2="0" y2="600.0" stroke="#666" stroke-width="1" />
<text x="5" y="15" font-size="10" fill="#666">0</text>
<line x1="50" y1="0" x2="50" y2="600.0" stroke="#666" stroke-width="1" />
<text x="55" y="15" font-size="10" fill="#666">50</text>
<line x1="100" y1="0" x2="100" y2="600.0" stroke="#666" stroke-width="1" />
<text x="105" y="15" font-size="10" fill="#666">100</text>
<line x1="150" y1="0" x2="150" y2="600.0" stroke="#666" stroke-width="1" />
<text x="155" y="15" font-size="10" fill="#666">150</text>
<line x1="200" y1="0" x2="200" y2="600.0" stroke="#666" stroke-width="1" />
<text x="205" y="15" font-size="10" fill="#666">200</text>
<line x1="250" y1="0" x2="250" y2="600.0" stroke="#666" stroke-width="1" />
<text x="255" y="15" font-size="10" fill="#666">250</text>
<line x1="300" y1="0" x2="300" y2="600.0" stroke="#666" stroke-width="1" />
<text x="305" y="15" font-size="10" fill="#666">300</text>
<line x1="350" y1="0" x2="350" y2="600.0" stroke="#666" stroke-width="1" />
<text x="355" y="15" font-size="10" fill="#666">350</text>
<line x1="400" y1="0" x2="400" y2="600.0" stroke="#666" stroke-width="1" />
<text x="405" y="15" font-size="10" fill="#666">400</text>
<line x1="450" y1="0" x2="450" y2="600.0" stroke="#666" stroke-width="1" />
<text x="455" y="15" font-size="10" fill="#666">450</text>
<line x1="500" y1="0" x2="500" y2="600.0" stroke="#666" stroke-width="1" />
<text x="505" y="15" font-size="10" fill="#666">500</text>
<line x1="550" y1="0" x2="550" y2="600.0" stroke="#666" stroke-width="1" />
<text x="555" y="15" font-size="10" fill="#666">550</text>
<line x1="600" y1="0" x2="600" y2="600.0" stroke="#666" stroke-width="1" />
<text x="605" y="15" font-size="10" fill="#666">600</text>
<line x1="650" y1="0" x2="650" y2="600.0" stroke="#666" stroke-width="1" />
<text x="655" y="15" font-size="10" fill="#666">650</text>
<line x1="700" y1="0" x2="700" y2="600.0" stroke="#666" stroke-width="1" />
<text x="705" y="15" font-size="10" fill="#666">700</text>
<line x1="750" y1="0" x2="750" y2="600.0" stroke="#666" stroke-width="1" />
<text x="755" y="15" font-size="10" fill="#666">750</text>
<line x1="0" y1="0" x2="800.0" y2="0" stroke="#666" stroke-width="1" />
<text x="5" y="15" font-size="10" fill="#666">0</text>
<line x1="0" y1="50" x2="800.0" y2="50" stroke="#666" stroke-width="1" />
<text x="5" y="65" font-size="10" fill="#666">50</text>
<line x1="0" y1="100" x2="800.0" y2="100" stroke="#666" stroke-width="1" />
<text x="5" y="115" font-size="10" fill="#666">100</text>
<line x1="0" y1="150" x2="800.0" y2="150" stroke="#666" stroke-width="1" />
<text x="5" y="165" font-size="10" fill="#666">150</text>
<line x1="0" y1="200" x2="800.0" y2="200" stroke="#666" stroke-width="1" />
<text x="5" y="215" font-size="10" fill="#666">200</text>
<line x1="0" y1="250" x2="800.0" y2="250" stroke="#666" stroke-width="1" />
<text x="5" y="265" font-size="10" fill="#666">250</text>
<line x1="0" y1="300" x2="800.0" y2="300" stroke="#666" stroke-width="1" />
<text x="5" y="315" font-size="10" fill="#666">300</text>
<line x1="0" y1="350" x2="800.0" y2="350" stroke="#666" stroke-width="1" />
<text x="5" y="365" font-size="10" fill="#666">350</text>
<line x1="0" y1="400" x2="800.0" y2="400" stroke="#666" stroke-width="1" />
<text x="5" y="415" font-size="10" fill="#666">400</text>
<line x1="0" y1="450" x2="800.0" y2="450" stroke="#666" stroke-width="1" />
<text x="5" y="465" font-size="10" fill="#666">450</text>
<line x1="0" y1="500" x2="800.0" y2="500" stroke="#666" stroke-width="1" />
<text x="5" y="515" font-size="10" fill="#666">500</text>
<line x1="0" y1="550" x2="800.0" y2="550" stroke="#666" stroke-width="1" />
<text x="5" y="565" font-size="10" fill="#666">550</text>
</g>
<g class="edge">
<path d="M0.0,50.0" stroke="#1976d2" stroke-width="2" marker-end="url(#arrowhead)" />
</g>
<g class="edge">
<path d="M0.0,110.0" stroke="#388e3c" stroke-width="2" marker-end="url(#arrowhead)" />
</g>
<g class="edge">
<path d="M0.0,170.0" stroke="#e65100" stroke-width="2" marker-end="url(#arrowhead)" />
</g>
<g class="node" opacity="1.0">
<ellipse cx="0.0" cy="25.0" rx="50.0" ry="25.0" fill="#e3f2fd" stroke="#1976d2" stroke-width="2" />
<text x="0.0" y="25.0" text-anchor="middle" dominant-baseline="middle" class="nodeLabel">Start</text>
</g>
<text x="5.0" y="30.0" font-size="8" fill="#666">(0,25)</text>
<g class="node" opacity="1.0">
<rect x="-60.0" y="50.0" width="120.0" height="60.0" rx="5" ry="5" fill="#e8f5e9" stroke="#388e3c" stroke-width="2" />
<text x="0.0" y="80.0" text-anchor="middle" dominant-baseline="middle" class="nodeLabel">Process 1</text>
</g>
<text x="5.0" y="85.0" font-size="8" fill="#666">(0,80)</text>
<g class="node" opacity="1.0">
<rect x="-60.0" y="110.0" width="120.0" height="60.0" rx="5" ry="5" fill="#fff3e0" stroke="#e65100" stroke-width="2" />
<text x="0.0" y="140.0" text-anchor="middle" dominant-baseline="middle" class="nodeLabel">Process 2</text>
</g>
<text x="5.0" y="145.0" font-size="8" fill="#666">(0,140)</text>
<g class="node" opacity="1.0">
<ellipse cx="0.0" cy="195.0" rx="50.0" ry="25.0" fill="#ffebee" stroke="#d32f2f" stroke-width="2" />
<text x="0.0" y="195.0" text-anchor="middle" dominant-baseline="middle" class="nodeLabel">End</text>
</g>
<text x="5.0" y="200.0" font-size="8" fill="#666">(0,195)</text>
</svg>
