<?xml version="1.0" encoding="UTF-8" standalone="no"?>
<svg width="1000" height="700" xmlns="http://www.w3.org/2000/svg">
<defs>
<style type="text/css">
.node rect, .node ellipse { stroke-width: 2px; }
.edge path { fill: none; }
.nodeLabel { font-family: "Helvetica Neue", Helvetica, Arial, sans-serif; font-size: 14px; font-weight: bold; }
.edgeLabel { font-family: "Helvetica Neue", Helvetica, Arial, sans-serif; font-size: 12px; font-weight: 500; }
</style>
<marker id="arrowhead" markerWidth="10" markerHeight="7" refX="9" refY="3.5" orient="auto">
  <polygon points="0 0, 10 3.5, 0 7" fill="#333" />
</marker>
<marker id="arrowhead-1976d2" markerWidth="10" markerHeight="7" refX="9" refY="3.5" orient="auto">
  <polygon points="0 0, 10 3.5, 0 7" fill="#1976d2" />
</marker>
<marker id="arrowhead-388e3c" markerWidth="10" markerHeight="7" refX="9" refY="3.5" orient="auto">
  <polygon points="0 0, 10 3.5, 0 7" fill="#388e3c" />
</marker>
<marker id="arrowhead-e65100" markerWidth="10" markerHeight="7" refX="9" refY="3.5" orient="auto">
  <polygon points="0 0, 10 3.5, 0 7" fill="#e65100" />
</marker>
<marker id="arrowhead-0288d1" markerWidth="10" markerHeight="7" refX="9" refY="3.5" orient="auto">
  <polygon points="0 0, 10 3.5, 0 7" fill="#0288d1" />
</marker>
<marker id="arrowhead-9c27b0" markerWidth="10" markerHeight="7" refX="9" refY="3.5" orient="auto">
  <polygon points="0 0, 10 3.5, 0 7" fill="#9c27b0" />
</marker>
<marker id="arrowhead-d32f2f" markerWidth="10" markerHeight="7" refX="9" refY="3.5" orient="auto">
  <polygon points="0 0, 10 3.5, 0 7" fill="#d32f2f" />
</marker>
<marker id="arrowhead-ffa000" markerWidth="10" markerHeight="7" refX="9" refY="3.5" orient="auto">
  <polygon points="0 0, 10 3.5, 0 7" fill="#ffa000" />
</marker>
<marker id="arrowhead-3f51b5" markerWidth="10" markerHeight="7" refX="9" refY="3.5" orient="auto">
  <polygon points="0 0, 10 3.5, 0 7" fill="#3f51b5" />
</marker>
<filter id="drop-shadow" height="130%">
  <feGaussianBlur in="SourceAlpha" stdDeviation="3" />
  <feOffset dx="2" dy="2" result="offsetblur" />
  <feComponentTransfer>
    <feFuncA type="linear" slope="0.2" />
  </feComponentTransfer>
  <feMerge>
    <feMergeNode />
    <feMergeNode in="SourceGraphic" />
  </feMerge>
</filter>
<filter id="glow" x="-30%" y="-30%" width="160%" height="160%">
  <feGaussianBlur stdDeviation="5" result="glow" />
  <feMerge>
    <feMergeNode in="glow" />
    <feMergeNode in="SourceGraphic" />
  </feMerge>
</filter>
</defs>
<rect width="1000" height="700" fill="#fafafa" />
<g class="grid" opacity="0.05">
<line x1="0" y1="0" x2="0" y2="700" stroke="#000" stroke-width="1" />
<line x1="50" y1="0" x2="50" y2="700" stroke="#000" stroke-width="1" />
<line x1="100" y1="0" x2="100" y2="700" stroke="#000" stroke-width="1" />
<line x1="150" y1="0" x2="150" y2="700" stroke="#000" stroke-width="1" />
<line x1="200" y1="0" x2="200" y2="700" stroke="#000" stroke-width="1" />
<line x1="250" y1="0" x2="250" y2="700" stroke="#000" stroke-width="1" />
<line x1="300" y1="0" x2="300" y2="700" stroke="#000" stroke-width="1" />
<line x1="350" y1="0" x2="350" y2="700" stroke="#000" stroke-width="1" />
<line x1="400" y1="0" x2="400" y2="700" stroke="#000" stroke-width="1" />
<line x1="450" y1="0" x2="450" y2="700" stroke="#000" stroke-width="1" />
<line x1="500" y1="0" x2="500" y2="700" stroke="#000" stroke-width="1" />
<line x1="550" y1="0" x2="550" y2="700" stroke="#000" stroke-width="1" />
<line x1="600" y1="0" x2="600" y2="700" stroke="#000" stroke-width="1" />
<line x1="650" y1="0" x2="650" y2="700" stroke="#000" stroke-width="1" />
<line x1="700" y1="0" x2="700" y2="700" stroke="#000" stroke-width="1" />
<line x1="750" y1="0" x2="750" y2="700" stroke="#000" stroke-width="1" />
<line x1="800" y1="0" x2="800" y2="700" stroke="#000" stroke-width="1" />
<line x1="850" y1="0" x2="850" y2="700" stroke="#000" stroke-width="1" />
<line x1="900" y1="0" x2="900" y2="700" stroke="#000" stroke-width="1" />
<line x1="950" y1="0" x2="950" y2="700" stroke="#000" stroke-width="1" />
<line x1="0" y1="0" x2="1000" y2="0" stroke="#000" stroke-width="1" />
<line x1="0" y1="50" x2="1000" y2="50" stroke="#000" stroke-width="1" />
<line x1="0" y1="100" x2="1000" y2="100" stroke="#000" stroke-width="1" />
<line x1="0" y1="150" x2="1000" y2="150" stroke="#000" stroke-width="1" />
<line x1="0" y1="200" x2="1000" y2="200" stroke="#000" stroke-width="1" />
<line x1="0" y1="250" x2="1000" y2="250" stroke="#000" stroke-width="1" />
<line x1="0" y1="300" x2="1000" y2="300" stroke="#000" stroke-width="1" />
<line x1="0" y1="350" x2="1000" y2="350" stroke="#000" stroke-width="1" />
<line x1="0" y1="400" x2="1000" y2="400" stroke="#000" stroke-width="1" />
<line x1="0" y1="450" x2="1000" y2="450" stroke="#000" stroke-width="1" />
<line x1="0" y1="500" x2="1000" y2="500" stroke="#000" stroke-width="1" />
<line x1="0" y1="550" x2="1000" y2="550" stroke="#000" stroke-width="1" />
<line x1="0" y1="600" x2="1000" y2="600" stroke="#000" stroke-width="1" />
<line x1="0" y1="650" x2="1000" y2="650" stroke="#000" stroke-width="1" />
</g>
<g class="edge">
<path d="M500,75.0 C500,90.0 350,105.0 350,120.0" stroke="#1976d2" stroke-width="2" marker-end="url(#arrowhead-1976d2)" />
<rect x="402.5" y="72.5" width="45" height="20" rx="10" ry="10" fill="white" stroke="#1976d2" stroke-width="1" opacity="0.9" />
<text x="425.0" y="82.5" text-anchor="middle" dominant-baseline="middle" class="edgeLabel" fill="#1976d2">input</text>
</g>
<g class="edge">
<path d="M500,75.0 C500,90.0 650,105.0 650,120.0" stroke="#1976d2" stroke-width="2" marker-end="url(#arrowhead-1976d2)" />
<rect x="552.5" y="72.5" width="45" height="20" rx="10" ry="10" fill="white" stroke="#1976d2" stroke-width="1" opacity="0.9" />
<text x="575.0" y="82.5" text-anchor="middle" dominant-baseline="middle" class="edgeLabel" fill="#1976d2">check</text>
</g>
<g class="edge">
<path d="M350,180.0 C350,210.0 350,240.0 350,270.0" stroke="#388e3c" stroke-width="2" marker-end="url(#arrowhead-388e3c)" />
</g>
<g class="edge">
<path d="M650,180.0 C650,210.0 350,240.0 350,270.0" stroke="#e65100" stroke-width="2" marker-end="url(#arrowhead-e65100)" />
</g>
<g class="edge">
<path d="M650,180.0 C650,210.0 650,240.0 650,270.0" stroke="#e65100" stroke-width="2" marker-end="url(#arrowhead-e65100)" />
</g>
<g class="edge">
<path d="M350,330.0 C350,360.0 350,390.0 350,420.0" stroke="#0288d1" stroke-width="2" marker-end="url(#arrowhead-0288d1)" />
</g>
<g class="edge">
<path d="M650,330.0 C650,360.0 650,390.0 650,420.0" stroke="#9c27b0" stroke-width="2" marker-end="url(#arrowhead-9c27b0)" />
</g>
<g class="edge">
<path d="M350,480.0 C350,511.6666666666667 500,543.3333333333334 500,575.0" stroke="#ffa000" stroke-width="2" marker-end="url(#arrowhead-ffa000)" />
</g>
<g class="edge">
<path d="M650,480.0 C650,511.6666666666667 500,543.3333333333334 500,575.0" stroke="#3f51b5" stroke-width="2" marker-end="url(#arrowhead-3f51b5)" />
</g>
<g class="node" filter="url(#glow)">
<ellipse cx="500" cy="50" rx="50.0" ry="25.0" fill="#e3f2fd" stroke="#1976d2" stroke-width="2" />
<text x="500" y="50" text-anchor="middle" dominant-baseline="middle" class="nodeLabel">Start</text>
</g>
<g class="node" filter="url(#drop-shadow)">
<rect x="290.0" y="120.0" width="120" height="60" rx="5" ry="5" fill="#e8f5e9" stroke="#388e3c" stroke-width="2" />
<text x="350" y="150" text-anchor="middle" dominant-baseline="middle" class="nodeLabel">Parse Data</text>
</g>
<g class="node" filter="url(#drop-shadow)">
<rect x="590.0" y="120.0" width="120" height="60" rx="5" ry="5" fill="#fff3e0" stroke="#e65100" stroke-width="2" />
<text x="650" y="150" text-anchor="middle" dominant-baseline="middle" class="nodeLabel">Validate</text>
</g>
<g class="node" filter="url(#drop-shadow)">
<rect x="290.0" y="270.0" width="120" height="60" rx="5" ry="5" fill="#e1f5fe" stroke="#0288d1" stroke-width="2" />
<text x="350" y="300" text-anchor="middle" dominant-baseline="middle" class="nodeLabel">Process</text>
</g>
<g class="node" filter="url(#drop-shadow)">
<rect x="590.0" y="270.0" width="120" height="60" rx="5" ry="5" fill="#f3e5f5" stroke="#9c27b0" stroke-width="2" />
<text x="650" y="300" text-anchor="middle" dominant-baseline="middle" class="nodeLabel">Store Data</text>
</g>
<g class="node" filter="url(#drop-shadow)">
<rect x="280.0" y="420.0" width="140" height="60" rx="5" ry="5" fill="#fff8e1" stroke="#ffa000" stroke-width="2" />
<text x="350" y="450" text-anchor="middle" dominant-baseline="middle" class="nodeLabel">Display Results</text>
</g>
<g class="node" filter="url(#drop-shadow)">
<rect x="590.0" y="420.0" width="120" height="60" rx="5" ry="5" fill="#e8eaf6" stroke="#3f51b5" stroke-width="2" />
<text x="650" y="450" text-anchor="middle" dominant-baseline="middle" class="nodeLabel">Export Data</text>
</g>
<g class="node" filter="url(#glow)">
<ellipse cx="500" cy="600" rx="50.0" ry="25.0" fill="#ffebee" stroke="#d32f2f" stroke-width="2" />
<text x="500" y="600" text-anchor="middle" dominant-baseline="middle" class="nodeLabel">End</text>
</g>
</svg>
