<?xml version="1.0" encoding="UTF-8" standalone="no"?>
<svg width="340.0" height="260.0" xmlns="http://www.w3.org/2000/svg">
<defs>
<style type="text/css">
.node rect, .node ellipse, .node diamond { fill: #f5f5f5; stroke: #333; stroke-width: 1px; }
.edgePath path { stroke: #333; stroke-width: 1.5px; fill: none; marker-end: url(#arrowhead); }
.edgeLabel { fill: #333; font-family: sans-serif; font-size: 12px; }
.nodeLabel { font-family: sans-serif; font-size: 14px; }
</style>
<marker id="arrowhead" markerWidth="10" markerHeight="7" refX="9" refY="3.5" orient="auto">
  <polygon points="0 0, 10 3.5, 0 7" fill="#333" />
</marker>
</defs>
<g class="grid">
<rect width="340.0" height="260.0" fill="#f9f9f9" />
<line x1="0" y1="0" x2="0" y2="260.0" stroke="#eee" stroke-width="1" />
<line x1="20" y1="0" x2="20" y2="260.0" stroke="#eee" stroke-width="1" />
<line x1="40" y1="0" x2="40" y2="260.0" stroke="#eee" stroke-width="1" />
<line x1="60" y1="0" x2="60" y2="260.0" stroke="#eee" stroke-width="1" />
<line x1="80" y1="0" x2="80" y2="260.0" stroke="#eee" stroke-width="1" />
<line x1="100" y1="0" x2="100" y2="260.0" stroke="#eee" stroke-width="1" />
<line x1="120" y1="0" x2="120" y2="260.0" stroke="#eee" stroke-width="1" />
<line x1="140" y1="0" x2="140" y2="260.0" stroke="#eee" stroke-width="1" />
<line x1="160" y1="0" x2="160" y2="260.0" stroke="#eee" stroke-width="1" />
<line x1="180" y1="0" x2="180" y2="260.0" stroke="#eee" stroke-width="1" />
<line x1="200" y1="0" x2="200" y2="260.0" stroke="#eee" stroke-width="1" />
<line x1="220" y1="0" x2="220" y2="260.0" stroke="#eee" stroke-width="1" />
<line x1="240" y1="0" x2="240" y2="260.0" stroke="#eee" stroke-width="1" />
<line x1="260" y1="0" x2="260" y2="260.0" stroke="#eee" stroke-width="1" />
<line x1="280" y1="0" x2="280" y2="260.0" stroke="#eee" stroke-width="1" />
<line x1="300" y1="0" x2="300" y2="260.0" stroke="#eee" stroke-width="1" />
<line x1="320" y1="0" x2="320" y2="260.0" stroke="#eee" stroke-width="1" />
<line x1="0" y1="0" x2="340.0" y2="0" stroke="#eee" stroke-width="1" />
<line x1="0" y1="20" x2="340.0" y2="20" stroke="#eee" stroke-width="1" />
<line x1="0" y1="40" x2="340.0" y2="40" stroke="#eee" stroke-width="1" />
<line x1="0" y1="60" x2="340.0" y2="60" stroke="#eee" stroke-width="1" />
<line x1="0" y1="80" x2="340.0" y2="80" stroke="#eee" stroke-width="1" />
<line x1="0" y1="100" x2="340.0" y2="100" stroke="#eee" stroke-width="1" />
<line x1="0" y1="120" x2="340.0" y2="120" stroke="#eee" stroke-width="1" />
<line x1="0" y1="140" x2="340.0" y2="140" stroke="#eee" stroke-width="1" />
<line x1="0" y1="160" x2="340.0" y2="160" stroke="#eee" stroke-width="1" />
<line x1="0" y1="180" x2="340.0" y2="180" stroke="#eee" stroke-width="1" />
<line x1="0" y1="200" x2="340.0" y2="200" stroke="#eee" stroke-width="1" />
<line x1="0" y1="220" x2="340.0" y2="220" stroke="#eee" stroke-width="1" />
<line x1="0" y1="240" x2="340.0" y2="240" stroke="#eee" stroke-width="1" />
</g>
<g class="node">
<rect x="30.0" y="20.0" width="40.0" height="40.0" rx="3" ry="3" />
<text x="50.0" y="40.0" text-anchor="middle" dominant-baseline="middle" class="nodeLabel">A</text>
<text x="50.0" y="75.0" text-anchor="middle" font-size="10" fill="#999">rank: 0, order: 0</text>
</g>
<g class="node">
<rect x="100.0" y="140.0" width="40.0" height="40.0" rx="3" ry="3" />
<text x="120.0" y="160.0" text-anchor="middle" dominant-baseline="middle" class="nodeLabel">B</text>
<text x="120.0" y="195.0" text-anchor="middle" font-size="10" fill="#999">rank: 1, order: 0</text>
</g>
<g class="node">
<rect x="200.0" y="140.0" width="40.0" height="40.0" rx="3" ry="3" />
<text x="220.0" y="160.0" text-anchor="middle" dominant-baseline="middle" class="nodeLabel">C</text>
<text x="220.0" y="195.0" text-anchor="middle" font-size="10" fill="#999">rank: 1, order: 1</text>
</g>
<g class="node">
<rect x="30.0" y="260.0" width="40.0" height="40.0" rx="3" ry="3" />
<text x="50.0" y="280.0" text-anchor="middle" dominant-baseline="middle" class="nodeLabel">D</text>
<text x="50.0" y="315.0" text-anchor="middle" font-size="10" fill="#999">rank: 2, order: 0</text>
</g>
</svg>
