<?xml version="1.0" encoding="UTF-8" standalone="no"?>
<svg width="170.0" height="260.0" xmlns="http://www.w3.org/2000/svg">
<defs>
<style type="text/css">
.node rect, .node ellipse, .node circle, .node diamond { fill: #f5f5f5; stroke: #333; stroke-width: 1px; }
.edgePath path { stroke: #333; stroke-width: 1.5px; fill: none; }
.edgePath path.dashed { stroke-dasharray: 5,5; }
.edgeLabel { fill: #333; font-family: sans-serif; font-size: 12px; }
.cluster { fill: #f0f0f0; stroke: #ddd; stroke-width: 1px; }
.nodeLabel { font-family: sans-serif; font-size: 14px; }
</style>
<marker id="arrowhead" markerWidth="10" markerHeight="7" refX="9" refY="3.5" orient="auto">
  <polygon points="0 0, 10 3.5, 0 7" fill="#333" />
</marker>
<marker id="arrowhead-blue" markerWidth="10" markerHeight="7" refX="9" refY="3.5" orient="auto">
  <polygon points="0 0, 10 3.5, 0 7" fill="#6A98F0" />
</marker>
<marker id="arrowhead-red" markerWidth="10" markerHeight="7" refX="9" refY="3.5" orient="auto">
  <polygon points="0 0, 10 3.5, 0 7" fill="#FF7676" />
</marker>
<marker id="arrowhead-green" markerWidth="10" markerHeight="7" refX="9" refY="3.5" orient="auto">
  <polygon points="0 0, 10 3.5, 0 7" fill="#75B798" />
</marker>
</defs>
<g class="edgePath">
<path d="M65.0,60.0 L40.0,85.0 L40.0,110.0" marker-end="url(#arrowhead)" />
</g>
<g class="edgePath">
<path d="M105.0,60.0 L130.0,85.0 L130.0,110.0" marker-end="url(#arrowhead)" />
</g>
<g class="edgePath">
<path d="M40.0,150.0 L40.0,175.0 L65.0,200.0" marker-end="url(#arrowhead)" />
</g>
<g class="edgePath">
<path d="M130.0,150.0 L130.0,175.0 L105.0,200.0" marker-end="url(#arrowhead)" />
</g>
<g class="node">
<rect x="65.0" y="20.0" width="40.0" height="40.0" rx="3" ry="3"  />
<text x="85.0" y="40.0" text-anchor="middle" dominant-baseline="middle" class="nodeLabel">A</text>
</g>
<g class="node">
<rect x="20.0" y="110.0" width="40.0" height="40.0" rx="3" ry="3"  />
<text x="40.0" y="130.0" text-anchor="middle" dominant-baseline="middle" class="nodeLabel">B</text>
</g>
<g class="node">
<rect x="110.0" y="110.0" width="40.0" height="40.0" rx="3" ry="3"  />
<text x="130.0" y="130.0" text-anchor="middle" dominant-baseline="middle" class="nodeLabel">C</text>
</g>
<g class="node">
<rect x="65.0" y="200.0" width="40.0" height="40.0" rx="3" ry="3"  />
<text x="85.0" y="220.0" text-anchor="middle" dominant-baseline="middle" class="nodeLabel">D</text>
</g>
</svg>
